/* XPM */
static char *_0119fc6bcc9408e91e1f26bc4690141LK7qStTdM6l9Uofr[] = {
/* columns rows colors chars-per-pixel */
"50 49 63 1 ",
"  c None",
". c #010101",
"X c #191717",
"o c #343030",
"O c #3E3939",
"+ c #3F393A",
"@ c #3F3A3A",
"# c #403B3B",
"$ c #423C3C",
"% c #433E3E",
"& c #443E3E",
"* c #453F3F",
"= c #454040",
"- c #464141",
"; c #474141",
": c #484242",
"> c #494344",
", c #4B4546",
"< c #4D4747",
"1 c #4E4848",
"2 c #504A4A",
"3 c #514A4A",
"4 c #514A4B",
"5 c #524B4C",
"6 c #534C4C",
"7 c #575050",
"8 c #585152",
"9 c #5A5252",
"0 c #5E5656",
"q c #615959",
"w c #625A5A",
"e c #665E5E",
"r c #686060",
"t c #6A6161",
"y c #6A6162",
"u c #6B6363",
"i c #6C6364",
"p c #6F6666",
"a c #716868",
"s c #746B6B",
"d c #756C6C",
"f c #766D6D",
"g c #786F6F",
"h c #777070",
"j c #7A7171",
"k c #7B7272",
"l c #7D7575",
"z c #7E7474",
"x c #807677",
"c c #827878",
"v c #837979",
"b c #84797A",
"n c #85797A",
"m c #847A7A",
"M c #857B7B",
"N c #847B7C",
"B c #867C7C",
"V c #887E7E",
"C c #908686",
"Z c #938989",
"A c #978D8D",
"S c #A7A2A2",
"D c #B4AEAF",
/* pixels */
"                        #>::>:>>:>:               ",
"                      41eMMMMcxzMMx8444<          ",
"                   87qMMMMljjjspjjcMMMBi<         ",
"                  8jBMMxdjprttirrrdjjMMMi%        ",
"                 5jMMcxpi8<1<11111<4rdjcBp$       ",
"                 wBMMcpe8#          -1pplMa&      ",
"                 4pjclrq&             4rixMp&     ",
"                 5riiir8               7rlcMp     ",
"                  4w008#               4egMMd:    ",
"                   %&&      re8         4edMBr    ",
" <llh                    #rjAAj8         4egMd5   ",
" 6AAZN5#                8MCA00Be         @wiMBw   ",
",dMccCCB@              8CCw<&pBe          4rsMw   ",
">ccMwpBCAx            8ABq$8eMBe          &wiMx4  ",
">cMje4<dBCj--,%<<%5&;4xMw#9irMBr           &wsMx4 ",
">cMdrre<cMccccMccMcMccMp$9riaMBr            :sMM4 ",
":cMgete:cccbMbMcMMMcMcj94irixMMi            :pxM4 ",
":cMjpt9ecbMMcbMcccbMbMx6&6wdcMMr            :igMi<",
">bbMs6ebMMMcMMMMMbMcMcMjw&:jBcMi            #6gMM:",
":xMMqecMcMbMbccMcbMbbbMMMg4<zMBr             <gMx:",
" 9MjejBMMcMMMMcbMMMMcMMMMMx:rMBe             1gMM>",
" 4jMxMMcMccMcMMbMccMMccMcMc7tccq             <gMx:",
"  9VcMMMMbMbxMMcbcMbbMMbMMMccMp$             <gMM>",
"  7BMMccxVMMMMbcbMMcxNMMMcMcMMi#             <gMx>",
"  7BMccCS#wMMbMMMcMMD41MMcMcMMp#>66666666#  $8gMc:",
"  7BMMMc4.oxcMcMMMbMe.XgMMbbMMjesjjjxjjsi0:&qpxMM>",
"  8BMMMp..ojMcbbcMMcX.XaccMMbMMBMMMMMMMxjxwqpxMcx,",
"  8BbcMBCCxgMMMbcMMMCCVsMMMcMcMMbcMMMcMcMcxxxcMMp&",
"  8xMccMVVMcBMbMMbMMBVBcbccMccbMbMccMMMcMMccMMxp4 ",
"   wMMMMMcMbijMVMMpgcMcMbMMcMMMbMcMMccMMcMcMMcp4  ",
"   wMMbMMcMBXic4qCo1MccMMMMMbccMMMcMMbcMMMMcMj4   ",
"   6dMbcbMcM6#Ooo#owcMMMbccMMMbbcMMMcMMMccMMMj4   ",
"    <gMcMMbbM96xp1tcBccBcBcBccccBBcncBMMcMMbBj6   ",
"    #pMMMcMcbNMMBBBMcBBcBcncxqBcnccMcMcMcMccMg6   ",
"     :dMMcMMMbbbcMBcBcMMBBxj6ecMMcBcMcBcMMMMVj4   ",
"      :dMMMMMMMMMMBBBMcggj9>qaBBcBcBMcMnMccMMj4   ",
"       :apapppaaaaapapt:>>qeacccBcBcBcMcMcMbMj6   ",
"        *11<<<<<11111<6iepssccBccBcMBcbbMMcbMj4   ",
"        :ttttiirttttieepfxcBcccMBcBBBcBbcMMMxs6   ",
"        :ttttreitttteiixBMMcBMBbcBccsgBccMMBji6   ",
"       :wtttttttitrriijMMMMMMcMMMMcpiwwBMbMxpq#   ",
"       -pxxxxxxirpijxxbMccM6jMxccdirr81jMMMjt7    ",
"       -pMccBjgddddggMMMMMM<0eiiieeiw71dxMxie8    ",
"       &pBMMd>##@@###pjMMcM<#&00qqq9:#5rjMxiq&    ",
"       %wxMM3        #iMMcM4  %&$1<4w#<wjlrr4     ",
"        :pMM6        :rjMMi&    7ite4  4spr4      ",
"        :ijM6         4iss<     6ie6   -0re%      ",
"         6iq           4r8      &:;    &9r4       ",
"          &             -#             ##:        "
};
