/* XPM */
static char *b979a8b8b60247d49f26cc421336332cozACzzeSLNYobCDc[] = {
/* columns rows colors chars-per-pixel */
"50 50 233 2 ",
"   c None",
".  c #332725",
"X  c #483B46",
"o  c #5A4C49",
"O  c #675A4F",
"+  c #AD4439",
"@  c #DC7F39",
"#  c #AB5644",
"$  c #BC5A52",
"%  c #BC7F6B",
"&  c #D37046",
"*  c #C37E65",
"=  c #E58335",
"-  c #E9933C",
";  c #B28050",
":  c #BF975B",
">  c #B58166",
",  c #BE9D6A",
"<  c #DA924E",
"1  c #C49358",
"2  c #EB9C42",
"3  c #F2A542",
"4  c #F2AC45",
"5  c #E2B448",
"6  c #E1A059",
"7  c #E5B455",
"8  c #F5B750",
"9  c #C0996F",
"0  c #D0976B",
"q  c #DB8C79",
"w  c #C69E7F",
"e  c #DE9374",
"r  c #DCA96C",
"t  c #C2A471",
"y  c #C7A974",
"u  c #CDAB73",
"i  c #C1A67C",
"p  c #CDA57C",
"a  c #C4AA79",
"s  c #C5AE7C",
"d  c #C8B077",
"f  c #CFB179",
"g  c #C9B17F",
"h  c #CDB77E",
"j  c #D2B478",
"k  c #D7B47F",
"l  c #D2B979",
"z  c #D7BE7D",
"x  c #EABE64",
"c  c #E5B374",
"v  c #E5B77B",
"b  c #EAC54B",
"n  c #E8C255",
"m  c #F9CA5B",
"M  c #E9C865",
"N  c #F8C763",
"B  c #FACF6F",
"V  c #EBCA73",
"C  c #ECCA74",
"Z  c #E6C179",
"A  c #D37788",
"S  c #9D9380",
"D  c #ADA692",
"F  c #BBB49A",
"G  c #BB8FA6",
"H  c #A1A2A2",
"J  c #B4B5AE",
"K  c #DB899A",
"L  c #DF9998",
"P  c #D7A289",
"I  c #CCB484",
"U  c #C7B18C",
"Y  c #CAB28B",
"T  c #CAB68E",
"R  c #CBB78E",
"E  c #D3BC81",
"W  c #D2BA85",
"Q  c #D7BE84",
"!  c #D4BD88",
"~  c #D9BF8A",
"^  c #D9A791",
"/  c #EEB281",
"(  c #E3BF91",
")  c #E3A3A8",
"_  c #E4A0BA",
"`  c #F7B8BD",
"'  c #D9C284",
"]  c #D6C18C",
"[  c #D9C38A",
"{  c #DCC588",
"}  c #DEC68E",
"|  c #D5C491",
" . c #D0C096",
".. c #D9C291",
"X. c #DBC592",
"o. c #D8C794",
"O. c #DEC991",
"+. c #DBC896",
"@. c #DEC895",
"#. c #D7C69B",
"$. c #DBC99A",
"%. c #DECC9B",
"&. c #DDCA9F",
"*. c #DBCC9F",
"=. c #E2C788",
"-. c #EBC688",
";. c #ECD183",
":. c #F9D683",
">. c #E3CB97",
",. c #E8CF98",
"<. c #EFCF99",
"1. c #F0C59D",
"2. c #E1D09A",
"3. c #E3D09F",
"4. c #EAD69A",
"5. c #F4D895",
"6. c #FBE098",
"7. c #DCCFA3",
"8. c #D6CEA9",
"9. c #DFD4A9",
"0. c #CFC5B3",
"q. c #D9D3B3",
"w. c #DFD4B0",
"e. c #EEC1AC",
"r. c #E7D4A1",
"t. c #E2D1A5",
"y. c #ECD5A1",
"u. c #ECDAA0",
"i. c #EFDCA7",
"p. c #E4D5A9",
"a. c #E7D7AA",
"s. c #E2DAAB",
"d. c #E6DAAD",
"f. c #EADAA8",
"g. c #ECDBAE",
"h. c #F1D8AC",
"j. c #F0DDAF",
"k. c #E5DBB0",
"l. c #EDDFB0",
"z. c #EED3BB",
"x. c #E3D9B8",
"c. c #E3DBB9",
"v. c #E1DABA",
"b. c #E3DCBE",
"n. c #EFE2AD",
"m. c #F3E1A6",
"M. c #E9E0B3",
"N. c #EEE3B5",
"B. c #ECE5B4",
"V. c #E6E1BD",
"C. c #EFE6B9",
"Z. c #EAE5BC",
"A. c #F4E6B1",
"S. c #F2E2B5",
"D. c #F2E9B6",
"F. c #F6EBB6",
"G. c #F4E4B9",
"H. c #F2E3BD",
"J. c #F1E9BB",
"K. c #F4EABC",
"L. c #F6EDBE",
"P. c #F3BCD2",
"I. c #BFC2C2",
"U. c #DAD6C0",
"Y. c #D0D2CF",
"T. c #CAD1D7",
"R. c #CEDADC",
"E. c #F7DFC2",
"W. c #ECC4D6",
"Q. c #FAC7DA",
"!. c #E4E1C7",
"~. c #E5E2C7",
"^. c #EDE8C3",
"/. c #E8E5C9",
"(. c #EDE9C8",
"). c #EAE8CC",
"_. c #ECEBCD",
"`. c #F4E7C1",
"'. c #F3ECC0",
"]. c #F7EBC4",
"[. c #F1E8C8",
"{. c #F4EEC9",
"}. c #F0ECCC",
"|. c #F9EDC9",
" X c #F7F0C2",
".X c #F6F1C7",
"XX c #F7F3CB",
"oX c #F4F0CF",
"OX c #F7F3CF",
"+X c #F9F1C8",
"@X c #F9F2CE",
"#X c #EEEED1",
"$X c #ECEBD5",
"%X c #EBECD6",
"&X c #E7E4DF",
"*X c #EFEFDA",
"=X c #F5F3D3",
"-X c #F8F2D1",
";X c #FBF5D1",
":X c #F8F5D3",
">X c #FBF4D4",
",X c #F8F5D6",
"<X c #FAF4D7",
"1X c #F4F2D8",
"2X c #F3F2DD",
"3X c #F6F5DD",
"4X c #F6F7DF",
"5X c #F9F7D9",
"6X c #F8F5DB",
"7X c #FCF7D8",
"8X c #F9F7DE",
"9X c #F9D1E0",
"0X c #D0E1E5",
"qX c #DDE8E7",
"wX c #D3E3E9",
"eX c #D7E5E8",
"rX c #D5E5EC",
"tX c #DAE9EF",
"yX c #F7E5ED",
"uX c #F2F4E0",
"iX c #F5F6E2",
"pX c #F4F4E4",
"aX c #F4F5E4",
"sX c #F6F5E6",
"dX c #F5F6E7",
"fX c #F6F6E6",
"gX c #F5F8E2",
"hX c #F5F8E5",
"jX c #F9F8E4",
"kX c #F3F5E8",
"lX c #F5F5E8",
"zX c #F5F6E8",
"xX c #EBF1F6",
/* pixels */
"                                                                                                    ",
"                                          aXkXkX                                                    ",
"                              zXsXsXhXsXiXiXiXiX2XsXsX                                              ",
"                          zXhXiXiX3XgX3X,X<X6X8X2X2X2XaXzXzX                                        ",
"                        zXjXjXjXiXgX6X<X<X:X,X3X6X1X1X2X2X2X2XsXaX                                  ",
"                      zXjXjXjXjX8X8X6X<X6X:X,X=X=XoX=X2X2X*X1X*X*XaX                                ",
"                    sXiXgXiX8X8X6X6X5X<X<XOX=X@XOXoX1XiX2X1X#X#X=X$X$XsX                            ",
"                  2XjX8X4X8X5X5X5X5X,X=XOXOXOXXXOX=X,X1X=XoX#X#X_.#X).%X                            ",
"                  hXiX8X5X5X5X5X<X:XOXXXXXXXXXXXXXXX@XXXoXoX}.}.}._._._.$X                          ",
"                zXgXgX5X=X<X:X:X:XOX.X+X+X.XXXXXXXOX=XoX{._.(.^.(.}._._._./.                        ",
"                hX4X4X5X;X;X;X;XOX.X X X X.X.X.XXXOXoX{.[.^.^.Z.^.(._._._.#XsX                      ",
"              sXiX4X5X7X>X;X;X;XXX X X X X X XL..XXX@X{.'.J.J.J.^.(._.#X#X_.$X                      ",
"              hXiX8X5X7X<X<X=XOXXX X X X X XL.L. X+XXX{.K.J.C.^.(.(._._._._._.aX                    ",
"            sXiXiX8X5X<X<X,X<X@XXX X XL.L.L.L.L.].+X.X'.J.H.C.B.Z.Z.^.^.^._.^.%X                    ",
"            zXiXiX4X5X<X<X5X,X=XOX X XL.L.L.K.F.L..X.XJ.N.l.B.l.M.q.q.V.^.(._._.!.                  ",
"          kXiXiXiX3X6X<X<X=XoX{..XL. XL.L.F.F.A.K.{.OXJ.n.n.l.d.8.S O F c.^.(.(./.                  ",
"          sXiXiX8X6X:X-X|.!.D S q.'. XL.F.F.m.m.A. X+XA.i.i.i.a.R o . S k.Z.Z.V.V.                  ",
"        aXgXgXgX3X<X:X=XJ.S X X D {.L.L.A.m.5.5.6.6.6.6.:.;.;.-...O o T s.k.d.c.b.!.                ",
"        aXgXgX4XiX6X=XoXZ.S X o 0.L.K.A.5.:.:.:.B B N N N N N x v I U 7.s.7.9.s.k./.                ",
"      sXiXjXjX3X3X6X=X=X^.q.D F V.H.A.5.B B B N 8 4 4 4 4 3 - 2 6 c %.7.7.7.#.7.9.c.                ",
"    aX2X3X8XjXjX4X3X=X}.}._.^.^.C.C.i.B m m m 8 3 3 4 2 - - = @ < r } $.$.+.| | 7.q.                ",
"    2X6X<X8X8X8X8X6X1X=XoX}.[.`.H.`.F.C N N 8 4 2 - 2 = = = @ @ < v } X.X.o.| | | 8.!.              ",
"  sX6X:X:X;X7X7X5X,X=X<X<X=X{.[.`.{.].4.-.x 7 2 - - - @ @ @ @ < r ( $.$.#.$.o.| o.7.c.              ",
"sX2X3X,X<X;X:X7X7X<X<X6X:X=X{.{.[.{.|.H.h.<.-.c 6 6 6 < 6 r r k ~ o.$.7.#.#.o.o.@.7.c.              ",
"2X2X8X=X<X-X@X@X;X7X7X7X:X=X=X{.{.|.|.'.G.j.h.y.-.Z v v ( >.>.@.o.o.#.*.#.+.| o.%.*.x./.            ",
"6X6X<X=X<X-XXX X].>X6X5X<X<X6X-X@X@X-X-X].H.S.j.y.>.,.<.r.3.%.%.$.o.| R | | | +.$.*.9.q.            ",
"3X3X=X=X=XXX{.L.K.@X<X<X<X<X<X<X<X<X:X-X{.J.N.N.y.,.y.f.f.r.3.2.%.@.X.! | o.o.$.%.7.7.w./.          ",
"2X1X1X=X=X{.F.5.<.].<X>X<X<X<X:X<X@X-X-X{.`.H.S.f.r.g.l.g.f.r.t.t.3.&.[ X.+.$.%.7.t.7.p.c.).        ",
"2X1X3XoX=X].-.6 c G.-X>X-X<X<X:X@X-X-XoX_.(.[.H.g.g.N.N.l.f.a.a.p.p.t.@.@.X.$.*.*.7.*.t.k.V.!.      ",
"2X2X1X=X'.-.@ @ v E.|.|.|.-X-XoX{.3X*X*X&X&X&XU.a.g.N.N.g.a.a.a.p.p.%.[ @.O.| *.+.| +.%.t.k.!.      ",
"2X2X1X|.1.& & e ` g.z.E.H.[.oX%X&X&XqXqXtXtXwXY.a.i.j.g.a.a.p.a.p.t.o.] X...] ] { E j j } 9.c.!.    ",
"2X2X1X].e q ` Q.9XyX&X&X&X&XqXqXqXeXrXrXtXtXR.J c.S.j.h.j.g.a.3.>.@.~ ! ! ! ] ] [ { u 1 , ] 9.b.!.  ",
"*X2X=Xh.q ` 9X9XyXxXeXeXeXeXwXwXeXeXrXwXrXtXT.H b.H.j.S.G.S.g.3.} } [ ~ ~ ! ] ..[ O.j 1 1 R #.x.b.!.",
"$X2XoX( L Q.Q.9XyXxXwXwXwXwX0X0XwXrXrXrXrX0XH D l.f.4.n.C.M.a.3.>.@.[ ] ! ~ ! ! ~ [ E 9     R R w.U.",
"  2X[.^ ) Q.Q.Q.yXxXwXeX0X0X0X0XwXwXrXrXwXI.S 7.f.u.u.i.g.g.p.2.>.O.[ Q Q ~ ! W W ! W 9       s ] 8.",
"  ).Z.^ ) P.P.P.W.&XT.0X0X0X0XwX0XwXwX0XI.D #.u.4.4.u.i.i.a.3.O.O.} } ' Q [ Q E W E I i         a  .",
"    t.* K _ _ _ _ _ G Y.0X0X0X0X0X0XR.I.F $.4.4.4.4.u.u.4.r.3.O.{ [ { { ' ! Q E E E I i           s ",
"    P $ $ A K ) ) ) ^ 0.Y.R.R.R.T.Y.0.9.f.u.4.4.2.4.y.4.,.4.>.{ ' ' { { ' ' ! ! E E I Y             ",
"    % + + * ^ e.z.z.z.z.c.U.U.U.U.k.g.j.N.n.u.4.4.u.y.r.,.>.O.' z ' ' [ [ [ Q E E W I               ",
"    > # $ 0 ( g.`.`.`.H.G.H.N.N.S.S.n.B.C.M.i.u.u.f.f.r.>.} ' ' z z z [ [ ' E E h I R               ",
"      % * p ( g.H.H.`.`.K.G.D.A.A.D.A.N.H.B.n.f.f.a.a.3.O.} { z z l W { ! E E h I I T               ",
"        w p ( y.y.i.G.'.L.K.K.D.D.D.D.D.J.J.B.f.a.d.a.3.@.O.Q l l l z ! E h h h I R                 ",
"          Y X.;.C -.n.L.'.'.'.'.J.D.K.K.L.J.N.f.f.d.s.%.@.X.Q j j l l h h h h h I                   ",
"            &.;.M C 5.A.B.K.'.'.J.D.J.J.J.N.N.g.d.d.s.%.O.[ Q j j l h d h h g I Y                   ",
"              2.M x C ;.u.K.'.'.J.J.J.J.C.B.B.M.k.d.7.o...] E f j j f d d g g T                     ",
"              c.-.n n n ;.m.D.J.J.J.J.`.C.n.B.M.k.p.7.] W Q E f f f f d d g U                       ",
"                Q 7 b n M ;.u.n.C.J.J.C.B.N.k.M.s.t.%...E l f f u y u d y p Y                       ",
"                =.n b b b M ;.4.l.J.J.C.B.l.s.s.p.7.&.o.W f u u y t y y t 9                         ",
"                  V n b b n x Z 4.S.C.B.M.k.a.t.t.7.*.*.! d y t t t t , ; >                         ",
"                    V M b 5 5 7 Z y.g.k.k.d.p.t.*.*.R  . .I y , , t , ; ;                           "
};
