/* XPM */
static char *_a90a05525f64c28cf9c9b65ffe400808rTLyv4M58SG0wHq[] = {
/* columns rows colors chars-per-pixel */
"50 50 207 2 ",
"   c None",
".  c #000006",
"X  c #070606",
"o  c #0E0B06",
"O  c #110D05",
"+  c #131005",
"@  c #181607",
"#  c #1D1905",
"$  c #070910",
"%  c #101010",
"&  c #221604",
"*  c #241F04",
"=  c #2D1C00",
"-  c #221F0A",
";  c #2A2505",
":  c #302003",
">  c #312103",
",  c #332304",
"<  c #373005",
"1  c #3B3205",
"2  c #3D3504",
"3  c #3E2F18",
"4  c #363427",
"5  c #2E2F34",
"6  c #412800",
"7  c #472F00",
"8  c #452D03",
"9  c #493102",
"0  c #4A3203",
"q  c #4D3302",
"w  c #4C3303",
"e  c #4E3502",
"r  c #493206",
"t  c #4B3404",
"y  c #4E3505",
"u  c #413802",
"i  c #45320E",
"p  c #47340E",
"a  c #4B3509",
"s  c #4A350B",
"d  c #513903",
"f  c #523A03",
"g  c #563E01",
"h  c #553C02",
"j  c #563C02",
"k  c #573D03",
"l  c #573E03",
"z  c #523A05",
"x  c #533B06",
"c  c #413117",
"v  c #553F12",
"b  c #473C23",
"n  c #453B26",
"m  c #4C3F20",
"M  c #423B2F",
"N  c #413C36",
"B  c #4B4105",
"V  c #594003",
"C  c #5C4203",
"Z  c #5D4403",
"A  c #5A4105",
"S  c #5A4205",
"D  c #594107",
"F  c #5C4F03",
"G  c #4F411F",
"H  c #5D4511",
"J  c #654A02",
"K  c #664C02",
"L  c #664F05",
"P  c #654D06",
"I  c #684F02",
"U  c #654D08",
"Y  c #685106",
"T  c #6B5407",
"R  c #6B5B03",
"E  c #6B540C",
"W  c #745902",
"Q  c #725C0F",
"!  c #654F19",
"~  c #725C10",
"^  c #7E6501",
"/  c #766419",
"(  c #4A422B",
")  c #464135",
"_  c #464339",
"`  c #46433C",
"'  c #44433F",
"]  c #504D3C",
"[  c #655020",
"{  c #655C27",
"}  c #6B572A",
"|  c #725D2E",
" . c #675F35",
".. c #705D37",
"X. c #715E3A",
"o. c #776927",
"O. c #7B6921",
"+. c #7D722D",
"@. c #6E6531",
"#. c #6A6337",
"$. c #766C33",
"%. c #786A37",
"&. c #756239",
"*. c #393A42",
"=. c #4A4C55",
"-. c #6B664A",
";. c #7F6E4D",
":. c #876800",
">. c #8A6B00",
",. c #8E7001",
"<. c #8E7800",
"1. c #9A7C02",
"2. c #8D7B25",
"3. c #817228",
"4. c #82732C",
"5. c #877829",
"6. c #8D7F2D",
"7. c #867334",
"8. c #877B30",
"9. c #897856",
"0. c #887857",
"q. c #8A7A59",
"w. c #9F8001",
"e. c #9B8402",
"r. c #9D8602",
"t. c #A78701",
"y. c #A78E02",
"u. c #A08904",
"i. c #AB9102",
"p. c #B49902",
"a. c #BA9800",
"s. c #BB9F02",
"d. c #A68F11",
"f. c #AC9515",
"g. c #A3901E",
"h. c #B19A15",
"j. c #B69F1D",
"k. c #BCA001",
"l. c #BFA302",
"z. c #BEA203",
"x. c #BFA615",
"c. c #BDA61C",
"v. c #92842D",
"b. c #9B8B2A",
"n. c #C09D00",
"m. c #C6A300",
"M. c #C1A401",
"N. c #CAA601",
"B. c #CDA900",
"V. c #CDAA01",
"C. c #D1AD01",
"Z. c #D3AE01",
"A. c #D5B101",
"S. c #D7B201",
"D. c #D7B301",
"F. c #DAB601",
"G. c #DBB601",
"H. c #D9B801",
"J. c #DAB901",
"K. c #DEBA00",
"L. c #C8AC12",
"P. c #CEB112",
"I. c #D4B712",
"U. c #E0BB00",
"Y. c #E2BF00",
"T. c #E7C300",
"R. c #EBC703",
"E. c #EDC901",
"W. c #E6C50A",
"Q. c #F1CC03",
"!. c #F4CF00",
"~. c #F4CF04",
"^. c #F7D101",
"/. c #F9D301",
"(. c #FCD601",
"). c #FED800",
"_. c #FFD800",
"`. c #FFDA00",
"'. c #FFDC00",
"]. c #FFDE00",
"[. c #FFDF00",
"{. c #FFE300",
"}. c #FFE500",
"|. c #9C8C52",
" X c #9E8F56",
".X c #9F9274",
"XX c #A99C79",
"oX c #B1A476",
"OX c #8D8D8D",
"+X c #B0A483",
"@X c #B4A886",
"#X c #BFB58F",
"$X c #BCB290",
"%X c #B9B9B6",
"&X c #C1B79C",
"*X c #C7BEA0",
"=X c #D2CAAA",
"-X c #D1CAB2",
";X c #D9D2B7",
":X c #E6E2CF",
">X c #EAE7D8",
",X c #EDE9D9",
"<X c #F3F1E5",
"1X c #F4F2EA",
"2X c #FCFBF9",
"3X c #FFFFFE",
"4X c white",
/* pixels */
"                                                                                                    ",
"                                                                                                    ",
"                                    p x s t s s s s s s s s s 0 0                                   ",
"                                  ) ' ) ) ) ) ) ) ) ) ) ) ) ) ) n w                                 ",
"                                _ +.6.6.v.v.v.v.v.v.v.v.v.v.6.v.o.m i                               ",
"                              ' #.L.(.^.Q.R.R.R.R.R.R.R.R.Q.^.(.L.#.m 0                             ",
"                            _ +.L.Q.}.`.a.:.>.>.>.>.>.>.:.a.`.'.^.L.o.b 0                           ",
"                            $.j.`.'.^.N.Q 3 c c c c c 3 3 Q N.^.'.(.j.@.G c                         ",
"                        ' #.P.(.(.`.m.U M ] ] ] ] ] ] ] ] ( P m.`.(.(.P. .b e                       ",
"                      ' 4.c.~.{.(.a.Q ( 2.c.j.c.j.c.j.c.c.5.( Q a.(.}.~.L.o.n c                     ",
"                      #.j.`.`.!.B.E G %.f.K.(.'.(.`.'.(.K.f.%.m E B.^.`.(.c.@.m i                   ",
"                  ' #.P.^.`.`.n.U ( 3.I.R F T.'.`.(.'.T.F R I.3.( J s.`.(./.P.@.n t                 ",
"                ' 4.j.^.{.^.a.Q ( 2.d.^ * 1 Y.{.`.(.'.Y.1 * ^ d.2.m Q a.^.{.(.c.o.n p               ",
"                #.c.`.`.^.B.T ( @.L.d.4 $ u Y.'.(.(.{.Y.u $ 4 d.x.@.m E B.^.(.`.x. .( p             ",
"            N $.P.~.'.(.a.E ( 5.L.R -.%X=.u Y.'.`.(.{.Y.u =.%X-.R L.5.( E a.(.`.!.P.@.n p           ",
"          t O.j.(.'.`.`.1.f 3.g.<.& 5 OX*.2 Y.{.(.`.'.Y.2 *.OX5 * <.g.3.x w.`.`.`.(.j.O.q           ",
"          x s.'.`.(.`.`.w.J G.r.@ $ % % $ B Y.{.(.(.{.Y.z $ % % $ @ r.D.J w.(.`.`.`.`.m.V           ",
"          l m.'.'.{.'.`.w.J K.h.5 5 5 5 5 { W.`.(.`.'.W.{ 5 5 5 5 5 h.K.P w.(.{.'.'.'.B.V           ",
"          l m.E.p.y.M.Q.w.J G.I.v.8.5.8.8.g.Q.`.`.(.`.Q.g.8.8.8.8.v.I.D.J 1.^.M.y.p.E.B.V           ",
"          l N.M.; X B K.t.J A.`.Q.~.~.^.~.^.`.(.(.`.`.(.^.^.Q.^.Q.^.`.D.J t.K.B X ; M.C.V           ",
"          S N.s.@ . < J.t.J A.}.{.{.{.{.{.{.'.{.'.{.'.{.}.}.}.{.}.{.{.A.J t.J.1 . # s.C.V           ",
"          j N.k.# . 2 J.t.J D.E.z.z.z.z.z.z.M.z.z.l.z.l.z.z.z.z.l.M.E.A.J t.J.2 . # s.C.V           ",
"          j N.s.# . 2 J.t.K G.i.; # ; * * * * * ; * ; # # ; ; # # ; i.G.J t.J.2 . # z.C.V           ",
"          x B.z.# . 2 J.t.K G.e.X o # & & & & & & # & & & & & & O X e.G.K t.J.2 . # s.C.V           ",
"          l B.s.# . 2 J.t.K G.r.+ > e d x x x e 7 7 e x x x d e > + r.G.K t.J.2 . # z.C.V           ",
"          l B.z.# . 2 J.t.K G.r.+ > j Y 7.  Y j 0 w l Y   7.P j > + r.G.K t.J.2 . # s.Z.V           ",
"          l Z.s.# . 2 J.t.K G.r.+ > j P     7.! 7 7 ! 7.    P l > + r.G.K t.J.2 . # s.Z.H           ",
"          S S.s.# . 2 J.t.K G.r.+ > y         ..0 0 X.        e > + r.G.K t.J.2 . # s.S.S           ",
"          Z G.s.# . 2 J.t.K G.r.+ , e         X.9 9 X.        q > + r.G.K t.J.2 . # s.G.C           ",
"          P U.s.# . 2 J.t.K G.r.+ > S         ;.9 9 ;.        q > + r.G.K t.J.2 . # s.G.C           ",
"          P U.s.# . 2 J.t.K G.r.+ > H       :X0.7 7 q.>X      y > + r.G.K t.J.2 . # s.G.C           ",
"          P U.s.# . 2 J.t.K G.r.+ > j 4.;X,X|.[ 9 9 [ |.>X=X~ x > + r.G.K t.J.2 . # s.G.A           ",
"          P U.s.# . 2 J.t.K G.r.+ > d P XX@XE x 9 w x E +X.XU d : O u.G.K t.J.2 . # s.S.S           ",
"          P U.s.# . 2 J.t.K G.r.+ > e e v v e 0 9 9 9 e v v q e : O u.G.K t.J.2 . # s.S.S           ",
"          Z G.s.# . 2 J.t.K G.r.+ > 9 9 6 6 7 9 9 9 9 7 1 6 9 9 > + w.G.K t.J.2 . # z.Z.V           ",
"          C S.s.# . 2 J.t.K G.r.+ > e d [ } j 9 0 9 e x [ ! x e > + r.G.K t.J.2 . # s.B.j           ",
"          A A.s.# . 2 J.t.K G.r.+ > d E &X&X/ f 9 9 j / &X+XE j > + r.G.K t.J.2 . # z.B.l           ",
"          V C.z.# . 2 J.t.K G.r.+ = } @X<X<X&X%.9 9 | oX,X:XP j > + r.G.K t.J.2 . # s.B.x           ",
"          l B.s.# . 2 J.t.K G.r.+ = 0.1X2X3X3X.X7 7 0.2X      q , + r.G.K t.J.2 . # s.N.l           ",
"          l N.z.# . 2 J.t.K G.r.+ = 0.<X3X3X3XXX7 7 ;.        q , + r.G.K t.J.2 . # z.N.l           ",
"          k N.z.@ . < G.t.K G.e.+ = | $X<X<X&X%.9 9 !  X      f : + r.G.J t.J.< . @ z.N.j           ",
"          j N.z.- X B K.t.K J.r.+ : j ~ =X-XO.l 9 9 V T     Y j : + r.G.K t.K.B X - z.N.j           ",
"          k m.L.( / B.^.u.K G.r.+ , e k } &.k e 9 9 d V y f j x , + r.J.K w.^.B./ ( L.m.j           ",
"          k m.W.b.I.}.'.1.K K.r.O & , : = = ; , , , > > , , : : & O r.K.K w.'.}.I.b.W.m.l           ",
"          k a.^.R.Q./.^.1.J A.w.O X o o o o o o o o o o o o o o X O r.A.J 1./.(.Q.E./.a.l           ",
"          y W ,.,.,.,.>.I j ^ Y : : : : : : : : ; : : : : : : : : , Y ^ f Y >.,.,.,.>.W a           ",
"          0 t 8 8 8 8 8 8 w 7 7 w w w w w w w w q q q 9 w w w w w w 7 8 t 8 8 8 8 8 8 8 y           ",
"                                                                                                    ",
"                                                                                                    ",
"                                                                                                    "
};
