/* XPM */
static char *efa7d14a7d224e5cc82ec6c52db17ca9xKTv6YGbNP7ZiuPu[] = {
/* columns rows colors chars-per-pixel */
"50 50 24 1 ",
"  c #AE2310",
". c #0F2E25",
"X c #922514",
"o c #162E25",
"O c #E82F19",
"+ c #50291C",
"@ c #CF2C18",
"# c #052F26",
"$ c #AB2310",
"% c #2A2C22",
"& c #A52311",
"* c #C32814",
"= c #E02D18",
"- c #B62511",
"; c #722718",
": c #EF3019",
"> c #7D2717",
", c #432F23",
"< c #762F21",
"1 c #B02310",
"2 c #362D22",
"3 c #672E20",
"4 c #AA301E",
"5 c #9E2F1E",
/* pixels */
"##################################################",
"+++++++2#,3+++++++2#,3+++++++++oo3+++++++++2#,3+++",
" $$ $  >#XO1$     >#5O1$ $ $ $$%2O*$ $ $   >#5O1$ ",
"$$$$$$1>#XO1$$$$$ >#5= $$$$$$$&%2=*$$$$$$$ >#5= $$",
"***1$$ >#XO****-$ >#5O******1$$%2=@*****-$ >#5O***",
"OO=-&&$>#XOOOOO@&$>#5OOOOOO=-&&%2=OOOOOO@&$>#5OOOO",
",,,2%%2%#%,,,,,2%2%#%,,,,,,,2%%..,,,,,,,2%2%#%,,,,",
"#o2%%%%%%%%%.#%2%%%%%%%%%#o2%%%%%%%%%.#%2%%%%%%%%%",
"#3=1&&&&&&&&+o*@&&&&&&&&X.3=1&&&&&&&&+o*@&&&&&&&&&",
"#3O-$$$$$$$1+o@@$$$$$$$ X.3O-$$$$$$$1+o@@$$$$$$$$$",
"#3O*----- $ +o@=------$$X.3O*----- $ +o@=------$$$",
"#3:OOOOOO*$1+o@:OOOOO=1 Xo3:OOOOOO*$1+o@:OOOOO=1  ",
"#2<<<<<<<3++%#3<<<<<<<+++#2<<<<<<<3++%#3<<<<<<<+++",
"......##o.........##.o.........##o.........##.o...",
"XXXXXX%%*&XXXXXXXX3#>*XXXXXXXXX%%*&XXXXXXXX3#>*XXX",
"     $%2O*$       >#5O1$      $%2O*$       >#5O1$ ",
"   $$&%2=*$     $ >#5=1     $$&%2=*$     $ >#5=1  ",
"===- $%2OO=====@ 1>#5:======- $%2OO=====@ 1>#5:===",
"444>>>%%54444445>>+#<4444444>>>%%54444445>>+#<4444",
"##################################################",
"#,5>;;;;;;;;2.>X;;;;;;;;3.,5>;;;;;;;;2.>X;;;;;;;;;",
"#3:-       1+o@=       1Xo3:-       1+o@=         ",
"#3O-$$$$$$$ +o@@$$$$$$$$X.3O-$$$$$$$ +o@@$$$$$$$$$",
"#3:@@@@@@-$ +o@O@@@@@@  Xo3:@@@@@@-$ +o@O@@@@@@ $$",
"#3@@@@@@@ XX+.4@@@@@@*XX>.3@@@@@@@ XX+.4@@@@@@*XXX",
"#.oooooooooo##oooooooooo.#.oooooooooo##ooooooooooo",
"++++++oo3+++++++++2#,3+++++++++oo3+++++++++2#,3+++",
"  $ $$%2O*$    $  >#5O1$   $ $$%2O*$    $  >#5O1$ ",
"$$$$$&%2=*$$$$$$$ >#5= $$$$$$$&%2=*$$$$$$$ >#5= $$",
"***1$$%2=@*****-$ >#5O******1$$%2=@*****-$ >#5O***",
"OO=-&&%2=OOOOOO@&$>#5OOOOOO=-&&%2=OOOOOO@&$>#5OOOO",
",,,2%%..,,,,,,,2%2%#%,,,,,,,2%%..,,,,,,,2%2%#%,,,,",
"#o2%%%%%%%%%.#%2%%%%%%%%%#o2%%%%%%%%%.#%2%%%%%%%%%",
"#3=1&&&&&&&&+o*@&&&&&&&&X.3=1&&&&&&&&+o*@&&&&&&&&&",
"#3O-$$$$$$$ +o@@$$$$$$$ X.3O-$$$$$$$ +o@@$$$$$$$$$",
"#3O*----- $ +o@=------$$X.3O*----- $ +o@=------$$$",
"#3:OOOOOO*$1+o@:OOOOO=1 Xo3:OOOOOO*$1+o@:OOOOO=1  ",
"#2<<<<<<<3++%#3<<<<<<<+++#2<<<<<<<3++%#3<<<<<<<+++",
"......##o.........##.o.........##o.........##.o...",
"XXXXXX%%*&XXXXXXXX3#>*XXXXXXXXX%%*&XXXXXXXX3#>*XXX",
"     $%2O*$       >#5O1$      $%2O*$       >#5O1$ ",
"   $$&%2=*$     $ >#5=1     $$&%2=*$     $ >#5=1  ",
"===- $%2OO=====@ 1>#5:======- $%2OO=====@ 1>#5:===",
"444>>>%%54444445>>+#<4444444>>>%%54444445>>+#<4444",
"##################################################",
"#,5>;;;;;;;;2.>X;;;;;;;;3.,5>;;;;;;;;2.>X;;;;;;;;;",
"#3:-       1+o@=        Xo3:-       1+o@=         ",
"#3O-$$$$$$$ +o@@$$$$$$$ X.3O-$$$$$$$ +o@@$$$$$$$$$",
"#3:@@@@@@-$ +o@=@@@@@* $X.3:@@@@@@-$ +o@=@@@@@* $$",
"#3:::::::*$ +o@::::::= $X.3:::::::*$ +o@::::::= $$"
};
