/* XPM */
static char *_69f49addf5d412fef53341f9a97a17cQJMYuC0zSIRL2IxS[] = {
/* columns rows colors chars-per-pixel */
"50 50 17 1 ",
"  c None",
". c #464646",
"X c #474646",
"o c #464746",
"O c #474746",
"+ c #464647",
"@ c #474647",
"# c #464747",
"$ c gray28",
"% c #22B04C",
"& c #23B04C",
"* c #22B14C",
"= c #23B14C",
"- c #22B04D",
"; c #23B04D",
": c #22B14D",
"> c #23B14D",
/* pixels */
"                                                  ",
"                                                  ",
"                                                  ",
"                                                  ",
"                                                  ",
"                                                  ",
"                                                  ",
"                                                  ",
"                                                  ",
"                                                  ",
"                                                  ",
"                                                  ",
"                                                  ",
"                                                  ",
"                                                  ",
"                                                  ",
"                                                  ",
"                                                  ",
"         *;;**&;;;;;**&&*;;;;>**;***;*;*;         ",
"         *;;>>&;&&;&*;&**$;;;>>**;;*;*;;*         ",
"         ;;;;&&*;&;*;;&;&#***;****;;**;;;         ",
"         >&;&>;;&;***&;#####;;;;;***;*;;;         ",
"         *&*>>**;;*;;**#&&;&;&;*;*;;*;;**         ",
"         ;&&>>>;*;;****#####*;*&***;;***;         ",
"         ;&;;**;>*;;&=*&&&*#;***;;*;*;;;;         ",
"         ;*;&;**>**>*=*#####&;*;;;**;**;;         ",
"         *;*;***;**>***&&o&&*;*;*>*;**;**         ",
"         ;;****;;;*;;;;*&#&&;*;;**;**;;**         ",
"         *>;=>*;;**;*;;*;;>>;***>;*>>>>**         ",
"                                                  ",
"                                                  ",
"                                                  ",
"                                                  ",
"                                                  ",
"                                                  ",
"                                                  ",
"                                                  ",
"                                                  ",
"                                                  ",
"                                                  ",
"                                                  ",
"                                                  ",
"                                                  ",
"                                                  ",
"                                                  ",
"                                                  ",
"                                                  ",
"                                                  ",
"                                                  ",
"                                                  "
};
